<svg width="35" height="39" viewBox="0 0 35 39" fill="none" xmlns="http://www.w3.org/2000/svg">
<path d="M32 32.5003C31.9999 30.8783 31.4238 29.7479 30.5273 28.8929C29.5862 27.9953 28.2213 27.3402 26.5957 26.8851C23.3286 25.9704 19.5404 26.0003 17.5 26.0003C15.4596 26.0003 11.6714 25.9704 8.4043 26.8851C6.77868 27.3402 5.41378 27.9953 4.47266 28.8929C3.57616 29.7479 3.00005 30.8783 3 32.5003C3 34.4333 4.56701 36.0003 6.5 36.0003H28.5C30.433 36.0003 32 34.4333 32 32.5003ZM35 32.5003C35 36.0901 32.0898 39.0003 28.5 39.0003H6.5C2.91015 39.0003 0 36.0901 0 32.5003C5.80507e-05 30.0419 0.92395 28.131 2.40234 26.721C3.83608 25.3538 5.7217 24.521 7.5957 23.9964C11.3286 22.9514 15.5404 23.0003 17.5 23.0003C19.4596 23.0003 23.6714 22.9514 27.4043 23.9964C29.2783 24.521 31.1639 25.3538 32.5977 26.721C34.0761 28.131 34.9999 30.0419 35 32.5003Z" fill="#60BFEB"/>
<path d="M24 9.5C24 5.91016 21.0898 3 17.5 3C13.9101 3 11 5.91015 11 9.5C11 13.0899 13.9101 16 17.5 16C21.0898 16 24 13.0898 24 9.5ZM27 9.5C27 14.7467 22.7466 19 17.5 19C12.2533 19 8 14.7467 8 9.5C8 4.25329 12.2533 0 17.5 0C22.7466 0 27 4.25328 27 9.5Z" fill="#60BFEB"/>
</svg>
